<?xml version="1.0" encoding="utf-8"?>
<!-- Generator: Adobe Illustrator 20.0.0, SVG Export Plug-In . SVG Version: 6.00 Build 0)  -->
<svg version="1.1" id="Layer_1" xmlns="http://www.w3.org/2000/svg" xmlns:xlink="http://www.w3.org/1999/xlink" x="0px" y="0px"
	 viewBox="0 0 841.9 595.3" style="enable-background:new 0 0 841.9 595.3;" xml:space="preserve">
<g>
	<path d="M408.6,310.6l0,0.8c0,0.5-0.3,0.8-0.5,1c-0.2-0.1-0.5-0.5-0.5-1l0-0.8h-6.7l4.6,5.1v33l2.7,3.9l2.7-3.9v-32.9l5-5.2H408.6z
		 M407,317.8l2.1-0.9v1l-2.1,0.9V317.8z M407,319.4l2.1-0.9v1l-2.1,0.9V319.4z M407,321l2.1-0.9v1L407,322V321z M407,322.6l2.1-0.9
		v1l-2.1,0.9V322.6z M407,324.2l2.1-0.9v1l-2.1,0.9V324.2z M407,325.8l2.1-0.9v1l-2.1,0.9V325.8z M407,327.4l2.1-0.9v1l-2.1,0.9
		V327.4z M407,329l2.1-0.9v1L407,330V329z M407,330.6l2.1-0.9v1l-2.1,0.9V330.6z M407,332.2l2.1-0.9v1l-2.1,0.9V332.2z M407,333.8
		l2.1-0.9v1l-2.1,0.9V333.8z M407,335.4l2.1-0.9v1l-2.1,0.9V335.4z M407,337l2.1-0.9v1L407,338V337z M407,338.6l2.1-0.9v1l-2.1,0.9
		V338.6z M407,340.2l2.1-0.9v1l-2.1,0.9V340.2z M407,341.8l2.1-0.9v1l-2.1,0.9V341.8z M407,343.4l2.1-0.9v1l-2.1,0.9V343.4z
		 M407,345l2.1-0.9v1l-2.1,0.9V345z M407,346.6l2.1-0.9v1l-2.1,0.9V346.6z M408,349.7l-1-1.5l2.1-0.9v0.8L408,349.7z M409.1,315.1
		v1.2l-2.1,0.9V315l-2.6-2.9h1.6c0.4,1,1.3,1.8,2,1.8s1.6-0.8,2-1.8h1.9L409.1,315.1z"/>
	<path d="M370.2,315h-16.5c-0.9,0-1.6,0.3-2.3,0.9c-0.6,0.6-0.9,1.4-0.9,2.3c0,0.9,0.3,1.6,0.9,2.3c0.6,0.6,1.4,0.9,2.3,0.9h5.1
		v32.1c0,0.9,0.3,1.6,0.9,2.3c0.6,0.6,1.4,0.9,2.3,0.9s1.6-0.3,2.3-0.9s0.9-1.4,0.9-2.3v-32.1h5c0.9,0,1.6-0.3,2.3-0.9
		c0.6-0.6,0.9-1.4,0.9-2.3c0-0.9-0.3-1.7-0.9-2.3C371.8,315.3,371.1,315,370.2,315z M370.2,318.7h-7.6v34.8c0,0.4-0.2,0.5-0.5,0.5
		s-0.5-0.2-0.5-0.5v-34.8h-7.8c-0.4,0-0.5-0.2-0.5-0.5c0-0.4,0.2-0.5,0.5-0.5h16.5c0.4,0,0.5,0.2,0.5,0.5
		C370.7,318.5,370.5,318.7,370.2,318.7z"/>
	<path d="M487.5,337.1c-0.9-1.1-1.9-2-2.9-2.8c-1.1-0.8-2.1-1.6-3.1-2.3c-0.9-0.6-1.6-1.2-2.3-1.7c-0.7-0.5-1.2-1-1.7-1.6
		c-0.4-0.5-0.8-1.1-1-1.7c-0.2-0.6-0.4-1.2-0.4-2V325v-0.1c0-0.1,0-0.3,0-0.5s0.1-0.5,0.1-0.8c0.1-0.3,0.2-0.6,0.3-1
		c0.1-0.3,0.3-0.6,0.6-0.9c0.1-0.1,0.3-0.3,0.7-0.5c0.4-0.2,1-0.4,2-0.4c1.2,0,2,0.3,2.5,0.8c0.2,0.2,0.3,0.5,0.4,0.7
		c0.1,0.3,0.2,0.6,0.2,0.9c0.1,0.3,0.1,0.6,0.1,0.8c0,0.2,0,0.4-0.1,0.6c0,0.1,0,0.3,0,0.6s0,0.7,0.2,1.1c0.1,0.4,0.4,0.8,0.7,1.2
		c0.4,0.4,1,0.6,1.7,0.8c0.8,0.2,1.5,0.1,2-0.1c0.5-0.3,0.9-0.6,1.1-1c0.3-0.4,0.5-1,0.6-1.6c0-0.1,0.1-0.4,0.1-1c0-0.6,0-1.2-0.1-2
		c-0.1-0.8-0.3-1.6-0.7-2.5c-0.3-0.9-0.8-1.8-1.5-2.6c-0.6-0.7-1.5-1.3-2.6-2c-1.2-0.7-2.7-1-4.7-1c-1.9,0-3.5,0.3-4.7,1
		c-1.2,0.6-2.1,1.3-2.7,2c-0.7,0.7-1.3,1.5-1.6,2.4c-0.4,0.8-0.6,1.6-0.8,2.4c-0.2,0.7-0.2,1.4-0.3,2c0,0.6,0,1,0,1.2
		c0,1.5,0.2,2.8,0.7,4c0.5,1.2,1.2,2.4,2.1,3.6c0.8,0.9,1.6,1.7,2.5,2.4c0.9,0.7,1.8,1.4,2.8,2c1,0.7,1.9,1.4,2.7,2
		c0.8,0.6,1.5,1.3,2,2s1,1.5,1.3,2.3c0.3,0.8,0.4,1.8,0.4,2.9c0,1.5-0.4,2.6-1.3,3.4c-0.4,0.3-0.9,0.6-1.4,0.7
		c-0.6,0.2-1.1,0.2-1.8,0.2c-0.9,0-1.7-0.1-2.2-0.4c-0.6-0.3-1-0.6-1.3-1c-0.3-0.4-0.5-0.9-0.6-1.4c-0.1-0.5-0.1-1-0.1-1.5
		c0-0.9-0.3-1.6-0.9-2.3c-0.6-0.6-1.4-0.9-2.3-0.9c-0.9,0-1.6,0.3-2.3,0.9c-0.6,0.6-0.9,1.4-0.9,2.3c0,1.1,0.1,2.2,0.3,3
		c0.2,0.9,0.5,1.7,0.8,2.4c0.3,0.7,0.7,1.3,1.1,1.8c0.4,0.5,0.8,0.9,1.2,1.2c0.9,0.8,2,1.4,3.2,1.8c1.2,0.4,2.5,0.6,3.9,0.6
		c2.9,0,5.3-0.8,7.3-2.4c0.4-0.4,0.9-0.8,1.3-1.3c0.4-0.5,0.8-1.1,1.1-1.8c0.3-0.7,0.6-1.5,0.9-2.3c0.2-0.9,0.3-1.9,0.3-3
		C490.6,342.8,489.6,339.7,487.5,337.1z M485.3,352.6c-1.5,1.2-3.4,1.8-5.6,1.8c-0.7,0-1.6-0.1-2.6-0.3c-1-0.2-1.9-0.7-2.8-1.4
		c-1.7-1.4-2.6-3.5-2.6-6.4c0-0.4,0.2-0.5,0.5-0.5c0.4,0,0.5,0.2,0.5,0.5c0,1.6,0.3,2.9,0.8,3.8c0.5,0.9,1.1,1.6,1.9,2.1
		c0.7,0.5,1.5,0.8,2.3,0.9c0.8,0.1,1.4,0.2,1.9,0.2c0.9,0,1.7-0.1,2.6-0.4s1.6-0.7,2.3-1.2c0.7-0.6,1.2-1.3,1.7-2.2
		c0.4-0.9,0.6-2,0.6-3.3c0-1.5-0.2-2.8-0.7-3.9c-0.4-1.1-1-2.1-1.7-3c-0.7-0.9-1.5-1.7-2.4-2.4c-0.9-0.7-1.8-1.4-2.7-2
		c-0.9-0.6-1.8-1.3-2.6-1.9c-0.8-0.6-1.5-1.3-2.2-2.1c-1.5-1.7-2.2-3.7-2.2-5.9c0-0.1,0-0.3,0-0.7s0.1-0.9,0.2-1.5
		c0.1-0.6,0.3-1.2,0.6-1.9s0.7-1.3,1.2-1.8c1.3-1.4,3.1-2.1,5.5-2.1c2.4,0,4.1,0.7,5.3,2.1c0.5,0.6,0.9,1.2,1.1,1.9
		c0.2,0.7,0.4,1.3,0.5,1.9c0.1,0.6,0.1,1.1,0.1,1.5c0,0.4-0.1,0.6-0.1,0.7c-0.1,0.4-0.3,0.5-0.6,0.4c-0.4,0-0.5-0.2-0.4-0.6
		c0,0,0-0.2,0-0.5c0-0.4,0-0.8-0.1-1.3c-0.1-0.5-0.2-1.1-0.4-1.7c-0.2-0.6-0.5-1.1-0.9-1.6c-1-1.1-2.5-1.7-4.5-1.7
		c-2,0-3.6,0.6-4.7,1.8c-0.5,0.5-0.8,1-1,1.6c-0.2,0.6-0.4,1.1-0.5,1.7s-0.2,1-0.2,1.3c0,0.4,0,0.5,0,0.5c0,1.1,0.2,2.1,0.6,2.9
		c0.4,0.9,0.9,1.6,1.5,2.4c0.6,0.7,1.3,1.4,2.1,2c0.8,0.6,1.6,1.2,2.4,1.8c1,0.7,1.9,1.4,2.9,2.2c0.9,0.7,1.8,1.6,2.6,2.5
		c1.7,2.1,2.6,4.7,2.6,7.5C488,349,487.1,351.1,485.3,352.6z"/>
	<path d="M435.8,314.9c-0.9,0-1.6,0.3-2.3,0.9c-0.6,0.6-0.9,1.4-0.9,2.3V338l-9.1-21.1c0,0,0-0.1,0-0.1s0-0.1,0-0.1h-0.1
		c0,0,0-0.1-0.1-0.1v-0.1c0,0-0.1,0-0.1-0.1c0,0-0.1,0-0.1-0.1c0,0,0-0.1-0.1-0.1c0,0-0.1-0.1-0.1-0.1l-0.1-0.1
		c-0.1-0.1-0.1-0.1-0.1-0.1c-0.1-0.1-0.1-0.1-0.1-0.1v-0.1c0,0-0.1,0-0.1,0c0,0,0,0-0.1,0v-0.1c0,0-0.1,0-0.1,0c0,0,0,0-0.1,0v-0.1
		c0,0-0.1,0-0.1-0.1h-0.1c0,0-0.1-0.1-0.1-0.1l-0.1-0.1c0,0-0.1-0.1-0.1-0.1c0,0-0.1,0-0.1,0s0,0-0.1,0h-0.1c0,0,0-0.1-0.1-0.1v-0.1
		c-0.1,0-0.1,0-0.1-0.1h-0.1c0,0-0.1,0-0.1-0.1c-0.1,0-0.1,0-0.2-0.1c-0.1,0-0.1,0-0.1-0.1h-0.1h-0.1c0,0-0.1,0-0.1-0.1h-0.1h-0.1
		H421l-0.1-0.1h-0.1h-0.2c-0.4,0-0.6,0-0.8,0.1h-0.1c-0.2,0-0.5,0.1-0.7,0.3c-0.1,0.1-0.1,0.1-0.1,0.1h-0.1c0,0-0.1,0-0.1,0
		s0,0-0.1,0c0,0-0.1,0-0.1,0.1h-0.1l-0.1,0.1c-0.1,0.1-0.1,0.1-0.1,0.1h-0.1c0,0-0.1,0.1-0.1,0.1v0.1c0,0-0.1,0.1-0.1,0.1v0.1
		l-0.1,0.1c0,0-0.1,0.1-0.1,0.1H418c0,0,0,0.1,0,0.1s0,0,0,0.1h-0.1c0,0,0,0.1-0.1,0.1v0.1c0,0-0.1,0.1-0.1,0.1c0,0,0,0.1,0,0.1
		s0,0,0,0.1c-0.1,0.1-0.1,0.1-0.1,0.1v0.1c0,0,0,0.1,0,0.1c0,0,0,0,0,0.1s0,0.1,0,0.1c0,0,0,0,0,0.1c0,0,0,0.1,0,0.1c0,0,0,0,0,0.1
		s0,0.1,0,0.1s0,0,0,0.1v0.1c0,0,0,0.1-0.1,0.1v0.1v0.1v0.1l-0.1,0.1v0.1v0.1v0.2v0.2v35.3c0,0.9,0.3,1.6,0.9,2.3
		c0.6,0.6,1.4,0.9,2.3,0.9s1.6-0.3,2.3-0.9c0.6-0.6,0.9-1.4,0.9-2.3v-19.9l9.1,21.1c0,0,0.1,0.1,0.1,0.1c0,0,0,0.1,0.1,0.1v0.1
		c0,0,0.1,0.1,0.1,0.1c0,0,0,0.1,0.1,0.1v0.1c0.2,0.4,0.6,0.7,1,1c0,0,0.1,0,0.1,0c0,0,0,0,0.1,0h0.1c0,0,0,0.1,0.1,0.1
		c0,0,0.1,0.1,0.1,0.1c0,0,0,0.1,0.1,0.1h0.1c0,0,0,0.1,0.1,0.1s0.1,0,0.3,0.1h0.1v0.1h0.2c0,0,0,0.1,0.1,0.1h0.1h0.1
		c0.1,0,0.3,0.1,0.5,0.1c0.3,0,0.5,0,0.6-0.1c0.2,0,0.3-0.1,0.4-0.1c0.1,0,0.2-0.1,0.4-0.2c0.1-0.1,0.1-0.1,0.1-0.1h0.1
		c0,0,0.1,0,0.1,0s0,0,0.1,0l0.1-0.1c0,0,0.1,0,0.1-0.1c0,0,0.1,0,0.1-0.1c0.1-0.1,0.1-0.1,0.1-0.1h0.1l0.1-0.1l0.1-0.1l0.1-0.1
		c0,0,0.1-0.1,0.1-0.1h0.1c0,0,0-0.1,0-0.1c0,0,0,0,0-0.1c0,0,0.1,0,0.1-0.1s0-0.1,0.1-0.1v-0.1l0.1-0.1c0,0,0.1-0.1,0.1-0.1
		l0.1-0.1c0,0,0-0.1,0.1-0.1v-0.1c0,0,0-0.1,0-0.1c0,0,0,0,0-0.1c0,0,0-0.1,0-0.1c0,0,0,0,0-0.1s0-0.1,0-0.1c0,0,0,0,0-0.1
		s0-0.1,0-0.1c0,0,0,0,0-0.1v-0.1c0,0,0-0.1,0.1-0.1v-0.1v-0.1V354l0.1-0.1v-0.1v-0.1v-0.2v-0.2v-35.3c0-0.9-0.3-1.6-0.9-2.3
		C437.5,315.2,436.7,314.9,435.8,314.9z M436.4,353.5L436.4,353.5v0.1v0.1v0.1h-0.1v0.1c0,0,0,0.1-0.1,0.1v0.1h-0.1v0.1h-0.1
		l-0.1,0.1h-0.1c0,0-0.1,0.1-0.1,0.1h-0.1h-0.1h-0.1h-0.1c0,0,0-0.1-0.1-0.1s-0.1,0-0.1-0.1h-0.1v-0.1h-0.1v-0.1c0,0-0.1,0-0.1-0.1
		l-0.1-0.1l-14.3-33v32.8c0,0.4-0.2,0.5-0.5,0.5c-0.4,0-0.5-0.2-0.5-0.5v-35.4v-0.1V318V318v-0.1h0.1v-0.1v-0.1h0.1v-0.1h0.1v-0.1
		h0.1l0.1-0.1h0.1l0.1-0.1h0.1h0.1h0.1h0.1h0.1h0.1v0.1h0.1h0.1v0.1h0.1l0.1,0.1v0.1h0.1v0.1c0,0,0.1,0.1,0.1,0.1l14.3,33v-32.8
		c0-0.4,0.2-0.5,0.5-0.5c0.4,0,0.5,0.2,0.5,0.5V353.5z"/>
	<path d="M453.5,335.4c-0.6,0.6-0.9,1.4-0.9,2.3s0.3,1.6,0.9,2.3c0.6,0.6,1.4,0.9,2.3,0.9h2.4v5.4v0.1v0.6c0,0.3,0,0.6-0.1,1
		c-0.1,0.4-0.2,0.7-0.3,1.1c-0.1,0.4-0.3,0.7-0.6,0.9c-0.1,0.1-0.3,0.3-0.7,0.5c-0.4,0.2-1,0.4-2,0.4c-0.9,0-1.5-0.1-1.8-0.3
		c-0.3-0.2-0.6-0.4-0.7-0.5c-0.2-0.2-0.4-0.6-0.6-0.9c-0.1-0.4-0.2-0.7-0.3-1.1c-0.1-0.4-0.1-0.7-0.1-1c0-0.3,0-0.5,0-0.7l0.1-0.1
		v-20.8c0-1,0.1-1.8,0.4-2.4c0.3-0.6,0.6-1,0.9-1.3c0.4-0.3,0.7-0.5,1.1-0.6c0.4-0.1,0.7-0.1,1-0.1c0.4,0,0.8,0.1,1.2,0.2
		c0.4,0.1,0.8,0.3,1.1,0.7c0.3,0.3,0.6,0.8,0.8,1.3c0.2,0.6,0.3,1.3,0.3,2.2c0,0.9,0.3,1.7,0.9,2.3c0.6,0.6,1.4,0.9,2.3,0.9
		c0.9,0,1.6-0.3,2.3-0.9c0.6-0.6,0.9-1.4,0.9-2.3c0-2.2-0.4-4-1.1-5.3c-0.7-1.3-1.5-2.3-2.2-3c-1.8-1.6-4-2.5-6.6-2.5
		c-2.6,0-4.8,0.9-6.6,2.6c-0.7,0.7-1.5,1.7-2.2,3s-1.1,3-1.1,5.2v20.5c0,0.2,0,0.7,0,1.3s0.1,1.3,0.3,2.1c0.2,0.8,0.4,1.6,0.8,2.5
		s0.9,1.7,1.6,2.5c0.6,0.7,1.5,1.3,2.6,2c1.2,0.6,2.7,1,4.6,1s3.4-0.3,4.6-1c1.2-0.6,2.1-1.3,2.8-2c0.7-0.7,1.3-1.6,1.6-2.4
		c0.4-0.9,0.7-1.7,0.8-2.5c0.2-0.8,0.3-1.5,0.3-2.1c0-0.6,0-1,0-1.2v-11.6h-8.8C454.9,334.5,454.1,334.8,453.5,335.4z M461.9,346.1
		v0.8c0,0.4-0.1,1-0.2,1.6c-0.1,0.6-0.3,1.3-0.6,2c-0.3,0.7-0.7,1.3-1.3,2c-1.3,1.4-3.1,2.1-5.4,2.1c-2.2,0-4-0.7-5.2-2.1
		c-0.6-0.6-1-1.3-1.3-2c-0.3-0.7-0.5-1.4-0.6-2.1s-0.2-1.2-0.1-1.7c0-0.5,0-0.7,0-0.9v-20.6c0-2.7,0.8-4.8,2.4-6.3
		c1.4-1.2,3-1.9,4.9-1.9c0.9,0,1.7,0.1,2.6,0.4c0.9,0.3,1.6,0.7,2.3,1.4c0.7,0.6,1.3,1.5,1.7,2.5c0.4,1,0.7,2.3,0.7,3.8
		c0,0.4-0.2,0.5-0.5,0.5c-0.4,0-0.5-0.2-0.5-0.5c0-1.3-0.2-2.4-0.6-3.3c-0.4-0.9-0.9-1.6-1.4-2.2c-0.6-0.6-1.2-1-2-1.2
		c-0.7-0.2-1.5-0.4-2.2-0.4c-0.7,0-1.5,0.1-2.2,0.4c-0.7,0.3-1.4,0.7-2,1.3c-0.6,0.6-1,1.3-1.4,2.2c-0.4,0.9-0.5,1.9-0.5,3.2v20.6
		v0.1c0,0.7,0,1.4,0.1,2.1c0.1,0.6,0.2,1.2,0.5,1.9c0.2,0.7,0.6,1.3,1.1,1.8c1,1.1,2.5,1.7,4.4,1.7c2,0,3.5-0.6,4.7-1.8
		c0.5-0.5,0.9-1.1,1.1-1.7c0.2-0.6,0.4-1.2,0.5-1.8s0.1-1,0.1-1.4v-0.6v-8h-5c-0.4,0-0.5-0.2-0.5-0.5s0.2-0.5,0.5-0.5h6.1V346.1z"/>
	<path d="M395,314.9c-0.9,0-1.6,0.3-2.3,0.9c-0.6,0.6-0.9,1.4-0.9,2.3v16.7h-8.3v-16.7c0-0.9-0.3-1.6-0.9-2.3
		c-0.6-0.6-1.4-0.9-2.3-0.9c-0.9,0-1.6,0.3-2.3,0.9c-0.6,0.6-0.9,1.4-0.9,2.3v35.4c0,0.9,0.3,1.6,0.9,2.3c0.6,0.6,1.4,0.9,2.3,0.9
		c0.9,0,1.6-0.3,2.3-0.9c0.6-0.6,0.9-1.4,0.9-2.3v-12.3h8.3v12.3c0,0.9,0.3,1.6,0.9,2.3c0.6,0.6,1.4,0.9,2.3,0.9
		c0.9,0,1.6-0.3,2.3-0.9c0.6-0.6,0.9-1.4,0.9-2.3v-35.4c0-0.9-0.3-1.6-0.9-2.3C396.6,315.2,395.9,314.9,395,314.9z M395.5,353.5
		c0,0.4-0.2,0.5-0.5,0.5c-0.4,0-0.5-0.2-0.5-0.5v-15h-13.7v15c0,0.4-0.2,0.5-0.5,0.5c-0.4,0-0.5-0.2-0.5-0.5v-35.4
		c0-0.4,0.2-0.5,0.5-0.5c0.4,0,0.5,0.2,0.5,0.5v19.4h13.7v-19.4c0-0.4,0.2-0.5,0.5-0.5c0.4,0,0.5,0.2,0.5,0.5V353.5z"/>
</g>
</svg>
