<?xml version="1.0" encoding="UTF-8" standalone="no"?>
<svg width="1033px" height="342px" viewBox="0 0 1033 342" version="1.1" xmlns="http://www.w3.org/2000/svg" xmlns:xlink="http://www.w3.org/1999/xlink" xmlns:sketch="http://www.bohemiancoding.com/sketch/ns">
    <!-- Generator: Sketch 3.3.3 (12072) - http://www.bohemiancoding.com/sketch -->
    <title>things-logo-sw</title>
    <desc>Created with Sketch.</desc>
    <defs></defs>
    <g id="Page-1" stroke="none" stroke-width="1" fill="none" fill-rule="evenodd" sketch:type="MSPage">
        <g id="things-logo-sw" sketch:type="MSLayerGroup" transform="translate(0.000000, 3.000000)">
            <g id="Page-1" sketch:type="MSShapeGroup">
                <g id="logo-on">
                    <g id="Things15-Logo">
                        <g id="Group" transform="translate(0.000000, 22.494382)">
                            <path d="M145.558779,4.52134831 C152.123697,4.52134831 157.703794,6.75615743 162.299237,11.2258427 C166.894679,15.695528 169.192366,21.3482804 169.192366,28.1842697 C169.192366,34.7573362 166.894679,40.344359 162.299237,44.9455056 C157.703794,49.5466522 152.123697,51.847191 145.558779,51.847191 L108.926718,51.847191 L108.926718,288.476404 C108.926718,295.049471 106.629031,300.636494 102.033588,305.23764 C97.438145,309.838787 91.8580481,312.139326 85.2931298,312.139326 C78.7282115,312.139326 73.1481146,309.838787 68.5526718,305.23764 C63.9572289,300.636494 61.659542,295.049471 61.659542,288.476404 L61.659542,51.847191 L24.2396947,51.847191 C17.6747763,51.847191 12.0946795,49.5466522 7.49923664,44.9455056 C2.90379382,40.344359 0.60610687,34.7573362 0.60610687,28.1842697 C0.60610687,21.3482804 2.90379382,15.695528 7.49923664,11.2258427 C12.0946795,6.75615743 17.6747763,4.52134831 24.2396947,4.52134831 L145.558779,4.52134831 L145.558779,4.52134831 Z M328.325191,4.12696629 C334.890109,4.12696629 340.470206,6.42750508 345.065649,11.0286517 C349.661092,15.6297983 351.958779,21.2168211 351.958779,27.7898876 L351.958779,288.870787 C351.958779,295.443853 349.661092,301.030876 345.065649,305.632022 C340.470206,310.233169 334.890109,312.533708 328.325191,312.533708 C321.760273,312.533708 316.180176,310.233169 311.584733,305.632022 C306.98929,301.030876 304.691603,295.443853 304.691603,288.870787 L304.691603,198.162921 L243.244275,198.162921 L243.244275,288.870787 C243.244275,295.443853 240.946588,301.030876 236.351145,305.632022 C231.755702,310.233169 226.175605,312.533708 219.610687,312.533708 C213.045769,312.533708 207.465672,310.233169 202.870229,305.632022 C198.274786,301.030876 195.977099,295.443853 195.977099,288.870787 L195.977099,27.7898876 C195.977099,21.2168211 198.274786,15.6297983 202.870229,11.0286517 C207.465672,6.42750508 213.045769,4.12696629 219.610687,4.12696629 C226.175605,4.12696629 231.755702,6.42750508 236.351145,11.0286517 C240.946588,15.6297983 243.244275,21.2168211 243.244275,27.7898876 L243.244275,150.837079 L304.691603,150.837079 L304.691603,27.7898876 C304.691603,21.2168211 306.98929,15.6297983 311.584733,11.0286517 C316.180176,6.42750508 321.760273,4.12696629 328.325191,4.12696629 L328.325191,4.12696629 Z M629.259542,4.12696629 C635.82446,4.12696629 641.404557,6.42750508 646,11.0286517 C650.595443,15.6297983 652.89313,21.2168211 652.89313,27.7898876 L652.89313,288.476404 L652.89313,290.053933 L652.89313,291.237079 L652.89313,291.631461 L652.89313,292.420225 C652.89313,292.420225 652.761833,292.551684 652.499237,292.814607 L652.499237,293.208989 L652.499237,293.997753 L652.499237,294.392135 C652.23664,294.655057 652.105344,294.917976 652.105344,295.180899 L652.105344,295.575281 C652.105344,295.838204 652.039695,295.969663 651.908397,295.969663 C651.777099,295.969663 651.71145,296.101122 651.71145,296.364045 C651.71145,296.626968 651.645802,296.824157 651.514504,296.955618 C651.383205,297.087079 651.317557,297.284268 651.317557,297.547191 C651.317557,297.810114 651.251909,298.007303 651.120611,298.138764 C650.989312,298.270225 650.923664,298.467414 650.923664,298.730337 C650.923664,298.99326 650.858016,299.124719 650.726718,299.124719 C650.595419,299.124719 650.529771,299.256178 650.529771,299.519101 L650.529771,299.913483 C650.267174,299.913483 650.135878,300.044943 650.135878,300.307865 L649.741985,300.702247 C649.741985,300.96517 649.610688,301.228089 649.348092,301.491011 L648.954198,301.885393 L648.954198,302.279775 C648.691602,302.279775 648.560305,302.411235 648.560305,302.674157 C648.560305,302.93708 648.429009,303.068539 648.166412,303.068539 C648.166412,303.331462 648.100764,303.462921 647.969466,303.462921 C647.838167,303.462921 647.772519,303.594381 647.772519,303.857303 L647.378626,303.857303 C647.378626,304.120226 647.24733,304.383145 646.984733,304.646067 L646.196947,305.434831 L645.40916,306.223596 L644.621374,307.01236 L644.227481,307.01236 C644.227481,307.01236 643.964888,307.275278 643.439695,307.801124 C643.177098,308.064046 642.914505,308.195506 642.651908,308.195506 C642.651908,308.458428 642.520612,308.589888 642.258015,308.589888 L641.864122,308.98427 C641.601525,308.98427 641.470229,309.049999 641.470229,309.181461 C641.470229,309.312922 641.338933,309.378652 641.076336,309.378652 L640.682443,309.378652 C640.682443,309.378652 640.41985,309.64157 639.894656,310.167416 C638.84427,310.693261 637.925195,311.087639 637.137405,311.350562 C636.349614,311.613484 635.299243,311.876403 633.98626,312.139326 C632.935873,312.402249 631.360316,312.533708 629.259542,312.533708 C627.683962,312.533708 626.502294,312.402249 625.714504,312.139326 L624.926718,312.139326 L624.532824,312.139326 C624.270228,312.139326 624.138931,312.007866 624.138931,311.744944 L622.563359,311.744944 L622.563359,311.350562 L621.775573,311.350562 C620.725186,310.824716 620.068704,310.561798 619.806107,310.561798 C619.54351,310.561798 619.412214,310.430338 619.412214,310.167416 L619.018321,310.167416 C618.755724,310.167416 618.624427,310.035956 618.624427,309.773034 C618.361831,309.773034 618.099238,309.641574 617.836641,309.378652 C617.574044,309.378652 617.442748,309.247192 617.442748,308.98427 L617.048855,308.98427 C616.786258,308.98427 616.654962,308.91854 616.654962,308.787079 C616.654962,308.655617 616.523665,308.589888 616.261069,308.589888 C613.372505,306.486506 611.009169,303.988779 609.170992,301.096629 L609.170992,300.702247 C608.908396,300.702247 608.777099,300.570788 608.777099,300.307865 C608.777099,300.307865 608.645803,300.176406 608.383206,299.913483 L608.383206,299.519101 C608.120609,299.256178 607.989313,298.99326 607.989313,298.730337 C607.989313,298.467414 607.858017,298.204496 607.59542,297.941573 L540.239695,142.160674 L540.239695,288.870787 C540.239695,295.443853 537.942008,301.030876 533.346565,305.632022 C528.751122,310.233169 523.171025,312.533708 516.606107,312.533708 C510.041189,312.533708 504.461092,310.233169 499.865649,305.632022 C495.270206,301.030876 492.972519,295.443853 492.972519,288.870787 L492.972519,28.1842697 L492.972519,26.6067416 L492.972519,25.4235955 L492.972519,25.0292135 L492.972519,24.2404494 L493.366412,23.8460674 L493.366412,23.4516854 L493.366412,22.6629213 L493.366412,22.2685393 C493.629009,22.0056167 493.760305,21.7426979 493.760305,21.4797753 L493.760305,21.0853933 C493.760305,20.8224706 493.825954,20.6910112 493.957252,20.6910112 C494.08855,20.6910112 494.154198,20.5595519 494.154198,20.2966292 C494.154198,20.0337066 494.219847,19.8365175 494.351145,19.7050562 C494.482443,19.5735948 494.548092,19.3764058 494.548092,19.1134831 C494.548092,18.8505605 494.61374,18.6533714 494.745038,18.5219101 C494.876337,18.3904488 494.941985,18.1932597 494.941985,17.9303371 C494.941985,17.6674144 495.007633,17.5359551 495.138931,17.5359551 C495.27023,17.5359551 495.335878,17.4044957 495.335878,17.141573 L495.335878,16.747191 C495.335878,16.747191 495.598471,16.4842723 496.123664,15.958427 C496.123664,15.6955043 496.189312,15.5640449 496.320611,15.5640449 C496.451909,15.5640449 496.517557,15.4325856 496.517557,15.1696629 C496.517557,15.1696629 496.648854,15.0382036 496.91145,14.7752809 L496.91145,14.3808989 C497.174047,14.1179762 497.305344,13.8550575 497.305344,13.5921348 L497.699237,13.5921348 C497.699237,13.3292122 497.764885,13.1977528 497.896183,13.1977528 C498.027482,13.1977528 498.09313,13.0662934 498.09313,12.8033708 L498.487023,12.8033708 C498.487023,12.5404481 498.618319,12.2775294 498.880916,12.0146067 L499.668702,11.2258427 L499.668702,10.8314607 C499.931299,10.8314607 500.193892,10.7000013 500.456489,10.4370787 L500.456489,10.0426966 C500.719085,10.0426966 500.981678,9.9112373 501.244275,9.6483146 L501.638168,9.6483146 C501.638168,9.6483146 501.900761,9.3853959 502.425954,8.85955056 L503.21374,8.07078652 L503.607634,8.07078652 C503.607634,7.80786385 503.73893,7.67640449 504.001527,7.67640449 C504.264123,7.67640449 504.39542,7.61067481 504.39542,7.47921348 C504.39542,7.34775215 504.526716,7.28202247 504.789313,7.28202247 L505.183206,7.28202247 C505.183206,7.28202247 505.445799,7.01910375 505.970992,6.49325843 C507.809169,5.44156778 509.647319,4.78427098 511.485496,4.52134831 L511.879389,4.52134831 C513.192373,4.25842565 515.161819,4.12696629 517.787786,4.12696629 L518.969466,4.12696629 L519.363359,4.12696629 L519.757252,4.52134831 L520.545038,4.52134831 L520.938931,4.52134831 L521.726718,4.52134831 C521.726718,4.78427098 521.858014,4.91573034 522.120611,4.91573034 L522.908397,4.91573034 L523.30229,4.91573034 C523.30229,5.178653 523.564883,5.31011236 524.090076,5.31011236 C524.352673,5.57303502 524.746562,5.70449438 525.271756,5.70449438 C525.534352,5.96741704 525.796945,6.0988764 526.059542,6.0988764 L526.453435,6.0988764 C526.453435,6.36179907 526.716028,6.49325843 527.241221,6.49325843 L527.241221,6.88764045 C527.766415,6.88764045 528.029008,7.01909981 528.029008,7.28202247 L528.422901,7.28202247 C528.685497,7.28202247 528.816794,7.34775215 528.816794,7.47921348 C528.816794,7.61067481 528.94809,7.67640449 529.210687,7.67640449 C529.210687,7.67640449 529.341983,7.80786385 529.60458,8.07078652 L529.998473,8.46516854 C529.998473,8.46516854 530.12977,8.5966279 530.392366,8.85955056 L530.78626,8.85955056 C531.048856,9.1224732 531.311449,9.2539326 531.574046,9.2539326 L531.574046,9.6483146 C531.836643,9.6483146 531.967939,9.7140443 531.967939,9.8455056 C531.967939,9.9769669 532.099235,10.0426966 532.361832,10.0426966 L532.361832,10.4370787 C532.624429,10.4370787 532.755725,10.5028083 532.755725,10.6342697 C532.755725,10.765731 532.887022,10.8314607 533.149618,10.8314607 L533.149618,11.2258427 C533.149618,11.2258427 533.412211,11.4887614 533.937405,12.0146067 C533.937405,12.0146067 534.199997,12.2775255 534.725191,12.8033708 L535.512977,13.5921348 C535.512977,13.8550575 535.644273,14.1179762 535.90687,14.3808989 C536.169467,14.3808989 536.300763,14.5123582 536.300763,14.7752809 C536.300763,15.0382036 536.43206,15.1696629 536.694656,15.1696629 C536.694656,15.6955082 536.825953,15.958427 537.08855,15.958427 L537.08855,16.352809 C537.351146,16.6157317 537.482443,16.8786504 537.482443,17.141573 L537.876336,17.141573 C537.876336,17.6674184 537.941984,17.9960668 538.073282,18.1275281 C538.204581,18.2589894 538.270229,18.4561785 538.270229,18.7191011 L605.625954,174.5 L605.625954,27.7898876 C605.625954,21.2168211 607.923641,15.6297983 612.519084,11.0286517 C617.114527,6.42750508 622.694624,4.12696629 629.259542,4.12696629 L629.259542,4.12696629 Z M840.780153,234.051685 C840.780153,235.629221 840.714504,238.652787 840.583206,243.122472 C840.451908,247.592157 839.729778,252.653343 838.416794,258.30618 C837.10381,263.959017 835.068716,270.006148 832.31145,276.447753 C829.554185,282.889358 825.549645,288.870759 820.29771,294.392135 C815.570969,299.387665 808.809204,304.251662 800.012214,308.98427 C791.215223,313.716878 779.858085,316.083146 765.940458,316.083146 C752.022831,316.083146 740.796989,313.716878 732.262595,308.98427 C723.728202,304.251662 717.22903,299.387665 712.764885,294.392135 C707.512951,288.607836 703.508411,282.429246 700.751145,275.85618 C697.993879,269.283113 696.024433,263.038794 694.842748,257.123034 C693.661063,251.207274 693.004581,245.948899 692.873282,241.347753 C692.741984,236.746606 692.807632,233.525852 693.070229,231.685393 L693.070229,80.2426966 C693.070229,64.2044142 695.696157,51.3871266 700.948092,41.7904494 C706.200026,32.1937722 711.583179,24.7663184 717.09771,19.5078652 C730.490143,6.88757735 746.770897,0.57752809 765.940458,0.57752809 C785.11002,0.57752809 801.390773,6.62465863 814.783206,18.7191011 C820.297737,23.9775544 825.746538,31.4707379 831.129771,41.1988764 C836.513004,50.9270149 839.20458,63.9414915 839.20458,80.2426966 C839.20458,87.0786859 836.906893,92.7314383 832.31145,97.2011236 C827.716008,101.670809 822.135911,103.905618 815.570992,103.905618 C809.006074,103.905618 803.425977,101.670809 798.830534,97.2011236 C794.235092,92.7314383 791.937405,87.0786859 791.937405,80.2426966 C791.937405,73.6696301 791.149626,68.2797963 789.574046,64.0730337 C787.998465,59.8662711 785.963371,56.5797871 783.468702,54.2134831 C780.974033,51.8471792 778.151161,50.2039372 775,49.2837079 C771.848839,48.3634785 768.829022,47.9033708 765.940458,47.9033708 C763.839684,47.9033708 761.345053,48.2320192 758.456489,48.8893258 C755.567924,49.5466325 752.8107,50.9926855 750.184733,53.2275281 C747.558765,55.4623707 745.261079,58.683125 743.291603,62.8898876 C741.322128,67.0966502 740.337405,72.8808621 740.337405,80.2426966 L740.337405,233.657303 L739.943511,234.446067 C739.943511,235.760681 740.00916,237.535382 740.140458,239.770225 C740.271756,242.005067 740.599997,244.502795 741.125191,247.263483 C741.650384,250.024171 742.438163,252.784818 743.48855,255.545506 C744.538937,258.306194 745.983197,260.606732 747.821374,262.447191 C748.609164,263.235959 750.250369,264.484823 752.745038,266.19382 C755.239707,267.902818 759.638136,268.757303 765.940458,268.757303 C772.767973,268.757303 777.560292,267.837088 780.317557,265.996629 C783.074823,264.156171 784.847324,262.841577 785.635115,262.052809 C787.473292,260.21235 788.917552,257.977541 789.967939,255.348315 C791.018326,252.719088 791.871752,250.089901 792.528244,247.460674 C793.184736,244.831448 793.512977,242.465179 793.512977,240.361798 L793.512977,236.023596 L793.512977,235.629213 L793.512977,195.796629 L776.181679,195.796629 C769.616761,195.796629 764.036664,193.49609 759.441221,188.894944 C754.845779,184.293797 752.548092,178.706774 752.548092,172.133708 C752.548092,165.560641 754.845779,159.973619 759.441221,155.372472 C764.036664,150.771325 769.616761,148.470787 776.181679,148.470787 L840.780153,148.470787 L840.780153,234.051685 L840.780153,234.051685 Z M1009.76031,167.795506 C1025.25351,187.251783 1033,209.994252 1033,236.023596 C1033,244.174198 1032.14657,251.470193 1030.43969,257.911798 C1028.73282,264.353403 1026.63207,270.071885 1024.1374,275.067416 C1021.64274,280.062946 1018.81986,284.401105 1015.6687,288.082022 C1012.51754,291.76294 1009.36643,294.917964 1006.21527,297.547191 C991.50985,309.378711 973.65354,315.294382 952.645802,315.294382 C942.404529,315.294382 932.819892,313.848329 923.891603,310.95618 C914.963314,308.06403 907.08553,303.594412 900.258015,297.547191 C897.369451,295.180887 894.415282,292.157322 891.39542,288.476404 C888.375557,284.795487 885.618333,280.457328 883.123664,275.461798 C880.628995,270.466267 878.593901,264.682055 877.018321,258.108989 C875.44274,251.535922 874.654962,244.042739 874.654962,235.629213 C874.654962,229.056147 876.952649,223.469124 881.548092,218.867978 C886.143534,214.266831 891.723631,211.966292 898.28855,211.966292 C905.116065,211.966292 910.76181,214.266831 915.225954,218.867978 C919.690099,223.469124 921.922137,229.056147 921.922137,235.629213 C921.922137,239.310131 922.250378,243.056723 922.90687,246.869101 C923.563362,250.68148 924.941974,254.165153 927.042748,257.320225 C929.143522,260.475297 932.228987,263.038754 936.299237,265.010674 C940.369486,266.982594 945.818286,267.968539 952.645802,267.968539 C957.372543,267.968539 961.770972,267.376972 965.841221,266.19382 C969.911471,265.010668 973.390825,263.235967 976.279389,260.869663 C982.581711,255.348287 985.732824,247.066347 985.732824,236.023596 C985.732824,227.872993 984.682453,220.774188 982.581679,214.726966 C980.480906,208.679745 977.39544,203.092722 973.325191,197.96573 C969.254941,192.838738 964.265678,187.974742 958.357252,183.373596 C952.448825,178.772449 945.818357,173.842723 938.465649,168.58427 C931.638134,163.851662 924.876369,158.921936 918.180153,153.794944 C911.483936,148.667952 905.247357,142.81801 899.470229,136.244944 C892.642714,127.831419 887.456506,119.089371 883.91145,110.018539 C880.366394,100.947707 878.593893,91.0225258 878.593893,80.2426966 C878.593893,78.6651607 878.659541,75.7730547 878.79084,71.5662921 C878.922138,67.3595295 879.57862,62.4955332 880.760305,56.9741573 C881.941991,51.4527814 883.911437,45.6685696 886.668702,39.6213483 C889.425968,33.5741271 893.430508,27.7899152 898.682443,22.2685393 C903.146587,17.2730087 909.842703,12.4090124 918.770992,7.67640449 C927.699281,2.94379656 939.253364,0.57752809 953.433588,0.57752809 C967.876408,0.57752809 979.364843,3.00952624 987.899237,7.87359551 C996.43363,12.7376648 1002.9328,17.6673908 1007.39695,22.6629213 C1012.38628,28.7101426 1016.12823,35.0859215 1018.6229,41.7904494 C1021.11757,48.4949773 1022.75877,54.6735672 1023.54656,60.3264045 C1024.33436,65.9792417 1024.59695,70.9089677 1024.33435,75.1157303 C1024.07175,79.3224929 1023.80916,81.8202208 1023.54656,82.6089888 C1022.75877,87.3415967 1021.18322,91.2853775 1018.81985,94.4404494 C1016.71907,97.3325987 1013.8962,99.764597 1010.35115,101.736517 C1006.80609,103.708437 1002.01377,104.037085 995.974046,102.722472 C990.196918,101.670781 985.929785,99.764621 983.172519,97.0039326 C980.415253,94.2432446 978.577104,91.3511387 977.658015,88.3275281 C976.738927,85.3039175 976.345038,82.6090006 976.476336,80.2426966 C976.607634,77.8763927 976.673282,76.4303397 976.673282,75.9044944 C976.935879,74.8528037 977.067176,73.4067508 977.067176,71.5662921 C977.067176,69.7258335 976.870231,67.7539431 976.476336,65.6505618 C976.082441,63.5471805 975.491607,61.4438307 974.703817,59.3404494 C973.916027,57.2370681 972.865655,55.3966371 971.552672,53.8191011 C968.401511,49.8752612 962.361877,47.9033708 953.433588,47.9033708 C946.343476,47.9033708 941.419861,48.8235863 938.662595,50.6640449 C935.90533,52.5045036 934.132828,53.8190972 933.345038,54.6078652 C931.506861,56.4483238 930.128249,58.5516736 929.20916,60.9179775 C928.290072,63.2842815 927.567942,65.65055 927.042748,68.0168539 C926.517555,70.3831579 926.189314,72.420778 926.058015,74.1297753 C925.926717,75.8387726 925.861069,77.0876365 925.861069,77.8764045 L925.861069,78.6651685 L925.861069,79.4539326 C925.861069,84.7123858 926.780143,89.5106525 928.618321,93.8488764 C930.456498,98.1871003 933.016777,102.26234 936.299237,106.074719 C939.581696,109.887098 943.717532,113.699419 948.70687,117.511798 C953.696208,121.324176 959.341953,125.465146 965.644275,129.934831 C972.996983,135.193285 980.546526,140.846037 988.29313,146.893258 C996.039733,152.94048 1003.19539,159.907826 1009.76031,167.795506 L1009.76031,167.795506 Z" id="Things" fill="#000000"></path>
                            <path d="M993.610687,282.166292 C1006.74052,271.386463 1013.30534,256.005718 1013.30534,236.023596 C1013.30534,214.72686 1007.00312,196.19109 994.398473,180.41573 C988.621345,173.579741 982.25347,167.466881 975.294656,162.076966 C968.335843,156.687052 961.311486,151.362948 954.221374,146.104494 C948.181649,141.897732 942.273311,137.559573 936.496183,133.089888 C930.719055,128.620202 925.598496,123.756206 921.134351,118.497753 C916.670207,113.2393 913.059556,107.455088 910.30229,101.144944 C907.545024,94.8347999 906.166412,87.6045351 906.166412,79.4539326 L906.166412,75.5101124 C906.166412,72.8808857 906.560301,69.5944017 907.348092,65.6505618 C908.135882,61.7067219 909.383198,57.565752 911.090076,53.2275281 C912.796955,48.8893042 915.357235,44.8797937 918.770992,41.1988764 C926.911491,32.5224285 938.465574,28.1842697 953.433588,28.1842697 C968.401602,28.1842697 979.430499,32.3909692 986.520611,40.8044944 C989.671771,44.4854117 991.969458,48.4949221 993.41374,52.8331461 C994.858022,57.17137 995.777097,61.2466102 996.170992,65.0589888 C996.564887,68.8713674 996.696184,72.0921217 996.564885,74.7213483 C996.433587,77.3505749 996.367939,78.6651685 996.367939,78.6651685 C995.842745,81.5573178 996.893117,83.0033708 999.519084,83.0033708 C1002.14505,83.5292161 1003.72061,82.4775412 1004.2458,79.8483146 C1004.2458,79.5853919 1004.3771,77.9421499 1004.63969,74.9185393 C1004.90229,71.8949287 1004.77099,68.2140666 1004.2458,63.8758427 C1003.72061,59.5376188 1002.60459,54.8708115 1000.89771,49.8752809 C999.190831,44.8797503 996.367959,40.1472134 992.429008,35.6775281 C983.763315,25.4235442 970.764972,20.2966292 953.433588,20.2966292 C936.102203,20.2966292 922.709971,25.4235442 913.256489,35.6775281 C909.317538,39.8842907 906.29772,44.4196386 904.196947,49.2837079 C902.096173,54.1477771 900.586264,58.7488547 899.667176,63.0870787 C898.748087,67.4253026 898.28855,71.1718943 898.28855,74.3269663 L898.28855,79.8483146 C898.28855,95.886597 903.671702,110.347127 914.438168,123.230337 C919.427506,129.014636 924.876306,134.20728 930.784733,138.808427 C936.693159,143.409574 943.061035,148.076381 949.88855,152.808989 C956.716065,157.541597 963.412181,162.471323 969.977099,167.598315 C976.542018,172.725307 982.450355,178.509518 987.70229,184.951124 C992.954225,191.392729 997.221358,198.754453 1000.50382,207.036517 C1003.78628,215.318581 1005.42748,224.980844 1005.42748,236.023596 C1005.42748,245.488811 1003.85192,253.507832 1000.70076,260.080899 C997.549603,266.653965 993.479414,271.97807 988.490076,276.053371 C983.500738,280.128672 977.854993,283.086508 971.552672,284.926966 C965.25035,286.767425 958.948123,287.68764 952.645802,287.68764 C948.969447,287.68764 944.242777,287.161803 938.465649,286.110112 C932.688521,285.058422 927.108424,282.757883 921.725191,279.208427 C916.341958,275.658971 911.746584,270.466326 907.938931,263.630337 C904.131279,256.794348 902.227481,247.460733 902.227481,235.629213 C902.227481,232.999987 900.914517,231.685393 898.28855,231.685393 C895.662582,231.685393 894.349618,232.999987 894.349618,235.629213 C894.349618,256.663027 900.651845,272.30669 913.256489,282.560674 C919.55881,288.08205 926.320575,291.631453 933.541985,293.208989 C940.763395,294.786525 947.13127,295.575281 952.645802,295.575281 C968.926799,295.575281 982.581624,291.105663 993.610687,282.166292 L993.610687,282.166292 L993.610687,282.166292 Z" id="Path" fill="#FFFFFF"></path>
                            <path d="M805.723664,280.983146 C809.925212,276.513461 813.076325,271.715194 815.177099,266.588202 C817.277873,261.46121 818.787782,256.597214 819.70687,251.996067 C820.625959,247.394921 821.085496,243.45114 821.085496,240.164607 L821.085496,234.446067 L821.085496,168.189888 L776.181679,168.189888 C773.555712,168.189888 772.242748,169.504481 772.242748,172.133708 C772.242748,174.762934 773.555712,176.077528 776.181679,176.077528 L813.207634,176.077528 L813.207634,234.840449 L813.207634,239.178652 C813.207634,242.070801 812.879393,245.554474 812.222901,249.629775 C811.566409,253.705077 810.319093,258.043235 808.480916,262.644382 C806.642739,267.245529 803.885515,271.517958 800.20916,275.461798 C791.806065,284.138246 780.383278,288.476404 765.940458,288.476404 C751.760234,288.476404 740.862633,284.269705 733.247328,275.85618 C729.570974,271.91234 726.81375,267.442722 724.975573,262.447191 C723.137395,257.45166 721.955728,252.719123 721.430534,248.249438 C720.642744,243.253908 720.380151,238.126993 720.642748,232.868539 L720.642748,232.474157 L720.642748,80.2426966 C720.642748,71.3033261 721.955712,63.5472239 724.581679,56.9741573 C727.207647,50.4010907 730.621353,45.011257 734.822901,40.8044944 C739.024448,36.5977318 743.882415,33.4427071 749.396947,31.3393258 C754.911478,29.2359445 760.425927,28.1842697 765.940458,28.1842697 C771.454989,28.1842697 776.90379,29.1044852 782.287023,30.9449438 C787.670256,32.7854025 792.528223,35.7432381 796.861069,39.8185393 C801.193915,43.8938406 804.738918,49.2836743 807.496183,55.9882022 C810.253449,62.6927302 811.632061,70.7774808 811.632061,80.2426966 C811.632061,82.8719233 812.945025,84.1865169 815.570992,84.1865169 C818.19696,84.1865169 819.509924,82.8719233 819.509924,80.2426966 C819.509924,69.1999448 817.868719,59.8663303 814.58626,52.241573 C811.3038,44.6168158 807.102316,38.4382259 801.981679,33.705618 C796.861043,28.97301 791.14965,25.5550667 784.847328,23.4516854 C778.545007,21.3483041 772.24278,20.2966292 765.940458,20.2966292 C752.022831,20.2966292 740.074859,24.8977068 730.096183,34.1 C718.541927,44.8798292 712.764885,60.2605742 712.764885,80.2426966 L712.764885,232.079775 C712.764885,232.868543 712.699237,234.971893 712.567939,238.389888 C712.436641,241.807882 712.764882,245.948852 713.552672,250.812921 C714.340462,255.676991 715.784722,260.803906 717.885496,266.19382 C719.98627,271.583735 723.137384,276.513461 727.338931,280.983146 C736.792414,291.23713 749.659461,296.364045 765.940458,296.364045 C783.009246,296.364045 796.270182,291.23713 805.723664,280.983146 L805.723664,280.983146 L805.723664,280.983146 Z" id="Path" fill="#FFFFFF"></path>
                            <path d="M633.198473,27.7898876 C633.198473,25.160661 631.885509,23.8460674 629.259542,23.8460674 C626.633575,23.8460674 625.320611,25.160661 625.320611,27.7898876 L625.320611,269.940449 L520.151145,26.2123596 C520.151145,26.2123596 520.019849,26.0809002 519.757252,25.8179775 L519.757252,25.4235955 L519.363359,25.4235955 L519.363359,25.0292135 L518.969466,24.6348315 L518.575573,24.6348315 L518.575573,24.2404494 L518.181679,24.2404494 L517.787786,24.2404494 L517.787786,23.8460674 L517.393893,23.8460674 L517,23.8460674 L516.606107,23.8460674 L516.212214,23.8460674 L515.818321,23.8460674 L515.424427,23.8460674 L515.030534,24.2404494 L514.636641,24.2404494 L514.242748,24.6348315 L513.848855,24.6348315 L513.848855,25.0292135 L513.454962,25.0292135 L513.454962,25.4235955 L513.061069,25.4235955 L513.061069,25.8179775 L513.061069,26.2123596 L512.667176,26.2123596 L512.667176,26.6067416 L512.667176,27.0011236 L512.667176,27.3955056 L512.667176,27.7898876 L512.667176,288.870787 C512.667176,291.500013 513.98014,292.814607 516.606107,292.814607 C519.232074,292.814607 520.545038,291.500013 520.545038,288.870787 L520.545038,46.7202247 L625.714504,290.448315 L626.108397,290.842697 C626.108397,291.105619 626.239693,291.237079 626.50229,291.237079 L626.50229,291.631461 L626.896183,291.631461 L626.896183,292.025843 L627.290076,292.025843 C627.290076,292.288765 627.421373,292.420225 627.683969,292.420225 C627.946566,292.420225 628.077863,292.551684 628.077863,292.814607 L628.471756,292.814607 L628.865649,292.814607 L629.259542,292.814607 L630.047328,292.814607 C630.309925,292.814607 630.572518,292.683147 630.835115,292.420225 L631.229008,292.420225 L631.622901,292.025843 L632.016794,292.025843 L632.016794,291.631461 L632.410687,291.631461 L632.410687,291.237079 C632.673284,291.237079 632.80458,291.105619 632.80458,290.842697 L632.80458,290.448315 L633.198473,290.448315 L633.198473,290.053933 L633.198473,289.659551 L633.198473,289.265169 L633.198473,288.870787 L633.198473,27.7898876 L633.198473,27.7898876 Z" id="Path" fill="#FFFFFF"></path>
                            <path d="M332.264122,27.7898876 C332.264122,25.160661 330.951158,23.8460674 328.325191,23.8460674 C325.699224,23.8460674 324.38626,25.160661 324.38626,27.7898876 L324.38626,170.55618 L223.549618,170.55618 L223.549618,27.7898876 C223.549618,25.160661 222.236654,23.8460674 219.610687,23.8460674 C216.98472,23.8460674 215.671756,25.160661 215.671756,27.7898876 L215.671756,288.870787 C215.671756,291.500013 216.98472,292.814607 219.610687,292.814607 C222.236654,292.814607 223.549618,291.500013 223.549618,288.870787 L223.549618,178.44382 L324.38626,178.44382 L324.38626,288.870787 C324.38626,291.500013 325.699224,292.814607 328.325191,292.814607 C330.951158,292.814607 332.264122,291.500013 332.264122,288.870787 L332.264122,27.7898876 L332.264122,27.7898876 Z" id="Path" fill="#FFFFFF"></path>
                            <path d="M145.558779,32.1280899 C148.184746,32.1280899 149.49771,30.8134963 149.49771,28.1842697 C149.49771,25.555043 148.184746,24.2404494 145.558779,24.2404494 L24.2396947,24.2404494 C21.6137273,24.2404494 20.3007634,25.555043 20.3007634,28.1842697 C20.3007634,30.8134963 21.6137273,32.1280899 24.2396947,32.1280899 L81.3541985,32.1280899 L81.3541985,288.476404 C81.3541985,291.105631 82.6671624,292.420225 85.2931298,292.420225 C87.9190971,292.420225 89.2320611,291.105631 89.2320611,288.476404 L89.2320611,32.1280899 L145.558779,32.1280899 L145.558779,32.1280899 Z" id="Path" fill="#FFFFFF"></path>
                        </g>
                        <g id="schraube" transform="translate(384.076336, 0.000000)" stroke="#000000">
                            <path d="M29.8257917,46.6887111 L50.8643585,38.0770099" id="Line" stroke-width="3"></path>
                            <path d="M29.8257917,58.5201718 L50.8643585,49.9084706" id="Line-2" stroke-width="3"></path>
                            <path d="M29.8257917,70.3516325 L50.8643585,61.7399313" id="Line-3" stroke-width="3"></path>
                            <path d="M29.8257917,82.1830931 L50.8643585,73.5713919" id="Line-4" stroke-width="3"></path>
                            <path d="M29.8257917,94.014554 L50.8643585,85.4028526" id="Line-5" stroke-width="3"></path>
                            <path d="M29.8257917,105.846014 L50.8643585,97.234313" id="Line-6" stroke-width="3"></path>
                            <path d="M29.8257917,117.677475 L50.8643585,109.065774" id="Line-7" stroke-width="3"></path>
                            <path d="M29.8257917,129.508936 L50.8643585,120.897235" id="Line-8" stroke-width="3"></path>
                            <path d="M29.8257917,141.340396 L50.8643585,132.728695" id="Line-9" stroke-width="3"></path>
                            <path d="M29.8257917,153.171857 L50.8643585,144.560156" id="Line-10" stroke-width="3"></path>
                            <path d="M29.8257917,165.003318 L50.8643585,156.391617" id="Line-11" stroke-width="3"></path>
                            <path d="M29.8257917,176.834779 L50.8643585,168.223077" id="Line-12" stroke-width="3"></path>
                            <path d="M29.8257917,188.666239 L50.8643585,180.054538" id="Line-13" stroke-width="3"></path>
                            <path d="M29.8257917,200.4977 L50.8643585,191.885999" id="Line-14" stroke-width="3"></path>
                            <path d="M29.8257917,212.329161 L50.8643585,203.717459" id="Line-15" stroke-width="3"></path>
                            <path d="M29.8257917,224.160621 L50.8643585,215.54892" id="Line-16" stroke-width="3"></path>
                            <path d="M29.8257917,235.992082 L50.8643585,227.380381" id="Line-17" stroke-width="3"></path>
                            <path d="M29.8257917,247.823543 L50.8643585,239.211841" id="Line-18" stroke-width="3"></path>
                            <path d="M29.8257917,259.655003 L50.8643585,251.043302" id="Line-19" stroke-width="3"></path>
                            <path d="M29.8257917,271.486464 L50.8643585,262.874763" id="Line-20" stroke-width="3"></path>
                            <path d="M50.1903476,0.4504038 L83.0831047,0.4504038 L54.1450382,30.7313082 L54.1450382,273.898876 L40.3587786,293.960751 L26.5725191,273.898876 L26.5725191,29.7461725 L0.36554747,0.4504038 L30.5272097,0.4504038 C30.8833984,7.7733957 37.1884954,13.6067416 40.3587786,13.6067416 C43.5290618,13.6067416 49.8341588,7.7733957 50.1903476,0.4504038 L50.1903476,0.4504038 Z" id="Rectangle-4959" stroke-width="5"></path>
                        </g>
                    </g>
                </g>
            </g>
        </g>
    </g>
</svg>